<svg xmlns="http://www.w3.org/2000/svg" width="15" height="15" fill="none" viewBox="0 0 15 15"><g fill="#f5f5f5" clip-path="url(#a)"><path d="M8.754 9.19a2.25 2.25 0 0 1-2.508 0L.1 5.092l-.1-.07v6.714c0 .77.625 1.381 1.38 1.381h12.24c.769 0 1.38-.625 1.38-1.38V5.02l-.1.071z"/><path d="M.587 4.361 6.734 8.46a1.38 1.38 0 0 0 1.532 0l6.147-4.098c.367-.245.587-.655.587-1.098 0-.761-.62-1.38-1.38-1.38H1.38c-.76 0-1.38.62-1.38 1.38 0 .443.22.853.587 1.098"/></g><defs><clipPath id="a"><path fill="#fff" d="M0 0h15v15H0z"/></clipPath></defs></svg>