<svg xmlns="http://www.w3.org/2000/svg" width="235" height="150" fill="none" viewBox="0 0 235 150"><path fill="#f5f5f5" d="M12.469 13.5V59H4.625V13.5zM31.03 33.406v6.219H10.47v-6.219zM33.625 13.5v6.25H10.469V13.5zM76.156 35v2.5q0 5.156-1.344 9.25-1.343 4.094-3.843 6.969a16.5 16.5 0 0 1-5.938 4.406q-3.469 1.5-7.687 1.5-4.188 0-7.657-1.5a17.2 17.2 0 0 1-5.968-4.406q-2.532-2.876-3.938-6.969-1.374-4.094-1.375-9.25V35q0-5.156 1.375-9.219 1.376-4.094 3.875-6.968 2.531-2.907 5.969-4.407 3.47-1.53 7.656-1.531 4.219 0 7.688 1.531 3.468 1.5 5.969 4.406 2.499 2.875 3.843 6.97 1.375 4.061 1.375 9.218m-7.844 2.5v-2.562q0-3.813-.75-6.72-.718-2.937-2.156-4.905-1.406-2.001-3.469-3-2.062-1.032-4.656-1.032t-4.625 1.032q-2.031.999-3.468 3-1.407 1.968-2.157 4.906-.75 2.906-.75 6.718V37.5q0 3.813.75 6.75.75 2.938 2.188 4.969 1.469 2 3.5 3.031 2.031 1 4.625 1 2.625 0 4.656-1 2.031-1.031 3.438-3.031 1.405-2.03 2.124-4.969.75-2.937.75-6.75M84 13.5h16.094q5.187 0 8.844 1.563t5.593 4.624q1.97 3.032 1.969 7.5 0 3.407-1.25 6a12.2 12.2 0 0 1-3.531 4.376q-2.282 1.749-5.438 2.718l-2.375 1.157H89.437l-.062-6.22h10.844q2.812 0 4.687-1 1.875-.999 2.813-2.718.969-1.751.969-3.937 0-2.376-.938-4.125-.906-1.782-2.812-2.72-1.907-.968-4.844-.968h-8.25V59H84zM109.969 59 99.281 38.563l8.219-.032 10.844 20.063V59zM127.5 13.5h7l13.156 35.094L160.781 13.5h7L150.406 59h-5.562zm-3.188 0h6.657l1.156 30.375V59h-7.813zm40 0H171V59h-7.844V43.875zm34.282 6.063L185 59h-8.219l17.125-45.5h5.25zM209.969 59l-13.625-39.437-.594-6.063h5.281L218.219 59zm-.657-16.875v6.219h-24.75v-6.219zm-180.75 80.156q0-1.406-.437-2.5-.405-1.094-1.469-2-1.062-.906-3-1.75-1.906-.875-4.875-1.781a54 54 0 0 1-6-2.219q-2.718-1.25-4.75-2.875Q6 107.5 4.875 105.375q-1.125-2.156-1.125-4.969 0-2.78 1.156-5.062 1.188-2.282 3.344-3.938 2.187-1.688 5.156-2.594 2.97-.936 6.563-.937 5.063 0 8.718 1.875 3.688 1.875 5.657 5.031 2 3.156 2 6.969h-7.782q0-2.25-.968-3.969-.938-1.75-2.875-2.75-1.907-1-4.844-1-2.781 0-4.625.844t-2.75 2.281-.906 3.25q0 1.281.594 2.344.593 1.031 1.812 1.938 1.219.875 3.063 1.656t4.343 1.5q3.782 1.125 6.594 2.5 2.813 1.343 4.688 3.062t2.812 3.906q.938 2.156.938 4.907 0 2.875-1.157 5.187-1.156 2.281-3.312 3.906-2.125 1.594-5.125 2.469-2.97.844-6.625.844-3.282 0-6.469-.875A19.1 19.1 0 0 1 8 131.094a13.74 13.74 0 0 1-4.125-4.5q-1.53-2.719-1.531-6.344h7.844q0 2.219.75 3.781a7 7 0 0 0 2.156 2.563q1.375.969 3.187 1.437 1.845.47 3.938.469 2.75 0 4.593-.781 1.875-.781 2.813-2.188.938-1.406.938-3.25M62.095 88.5V134h-7.782V88.5zm14.281 0v6.25H40.156V88.5zm31.531 0h7.813v30.406q0 5.188-2.25 8.688t-6.125 5.281q-3.844 1.75-8.594 1.75-4.905 0-8.75-1.75-3.843-1.781-6.062-5.281-2.188-3.5-2.188-8.688V88.5h7.813v30.406q0 3.282 1.124 5.406 1.125 2.094 3.188 3.094t4.875 1 4.844-1q2.062-1 3.187-3.094 1.125-2.124 1.125-5.406zm29.563 45.5h-9.719l.062-6.219h9.657q4.218 0 7.062-1.843 2.875-1.844 4.313-5.282 1.468-3.437 1.468-8.187V110q0-3.687-.843-6.531-.813-2.844-2.438-4.781a10.2 10.2 0 0 0-3.937-2.938q-2.313-1-5.344-1h-10.188V88.5h10.188q4.531 0 8.281 1.531 3.75 1.5 6.469 4.344 2.75 2.844 4.219 6.813t1.469 8.874v2.407q0 4.906-1.469 8.875-1.469 3.968-4.219 6.812-2.75 2.813-6.562 4.344-3.781 1.5-8.469 1.5m-5.375-45.5V134h-7.844V88.5zm42.344 0V134h-7.844V88.5zm46.031 21.5v2.5q0 5.157-1.344 9.25t-3.844 6.969a16.54 16.54 0 0 1-5.937 4.406q-3.469 1.5-7.688 1.5-4.187 0-7.656-1.5a17.2 17.2 0 0 1-5.969-4.406q-2.531-2.876-3.937-6.969-1.375-4.093-1.375-9.25V110q0-5.156 1.375-9.219 1.374-4.094 3.875-6.969 2.53-2.906 5.969-4.406 3.468-1.53 7.656-1.531 4.219 0 7.687 1.531 3.469 1.5 5.969 4.406 2.5 2.875 3.844 6.969 1.374 4.063 1.375 9.219m-7.844 2.5v-2.562q0-3.813-.75-6.719-.719-2.938-2.156-4.906-1.407-2.001-3.469-3-2.062-1.032-4.656-1.032t-4.625 1.031q-2.031 1-3.469 3-1.406 1.969-2.156 4.907-.75 2.906-.75 6.719v2.562q0 3.813.75 6.75.75 2.938 2.187 4.969 1.469 2 3.5 3.031 2.031 1 4.625 1 2.625 0 4.656-1 2.032-1.032 3.438-3.031 1.407-2.031 2.125-4.969.75-2.937.75-6.75"/></svg>