<svg xmlns="http://www.w3.org/2000/svg" width="15" height="15" fill="none" viewBox="0 0 15 15"><g fill="#f5f5f5" clip-path="url(#a)"><path d="M11.86 2.775a.365.365 0 1 0 .001.73.365.365 0 0 0 0-.73M7.5 4.271A3.23 3.23 0 0 0 4.27 7.5 3.23 3.23 0 0 0 7.5 10.728 3.23 3.23 0 0 0 10.728 7.5 3.23 3.23 0 0 0 7.5 4.27"/><path d="M10.888 0H4.112A4.117 4.117 0 0 0 0 4.112v6.776A4.117 4.117 0 0 0 4.112 15h6.776A4.117 4.117 0 0 0 15 10.888V4.112A4.117 4.117 0 0 0 10.888 0M7.5 11.614A4.12 4.12 0 0 1 3.386 7.5 4.12 4.12 0 0 1 7.5 3.386 4.12 4.12 0 0 1 11.614 7.5 4.12 4.12 0 0 1 7.5 11.614m4.36-7.224c-.689 0-1.25-.561-1.25-1.25 0-.69.561-1.25 1.25-1.25.69 0 1.25.56 1.25 1.25 0 .689-.56 1.25-1.25 1.25"/></g><defs><clipPath id="a"><path fill="#fff" d="M0 0h15v15H0z"/></clipPath></defs></svg>