<svg xmlns="http://www.w3.org/2000/svg" width="15" height="15" fill="none" viewBox="0 0 15 15"><path fill="#f5f5f5" d="M7.5 4.188a1.92 1.92 0 0 0-1.917 1.917A1.92 1.92 0 0 0 7.5 8.022a1.92 1.92 0 0 0 1.917-1.917A1.92 1.92 0 0 0 7.5 4.187"/><path fill="#f5f5f5" d="M11.987 1.858A6.3 6.3 0 0 0 7.5 0C5.806 0 4.213.66 3.014 1.858a6.3 6.3 0 0 0-1.858 4.486c0 3.428 3.242 6.28 4.983 7.812.242.212.451.396.617.552.21.195.477.292.744.292.268 0 .536-.098.744-.292.167-.156.376-.34.618-.553 1.741-1.531 4.983-4.383 4.983-7.81 0-1.695-.66-3.289-1.859-4.487M7.5 8.9a2.8 2.8 0 0 1-2.795-2.796A2.8 2.8 0 0 1 7.5 3.31a2.8 2.8 0 0 1 2.796 2.795A2.8 2.8 0 0 1 7.5 8.9"/></svg>