<svg xmlns="http://www.w3.org/2000/svg" width="15" height="15" fill="none" viewBox="0 0 15 15"><path fill="#f5f5f5" d="M2.802.692c-.234.007-.44.13-.613.303l-.287.287 3.116 3.172.452-.452a.71.71 0 0 0 0-.995L3.457.995C3.263.8 3.037.685 2.802.692m5.4 1.181a4.92 4.92 0 0 1 4.923 4.923c-.007.32.476.32.469 0a5.396 5.396 0 0 0-5.403-5.39c-.298.036-.278.46.012.467m-6.632-.26-.33.33C.7 2.483.703 3.189.703 3.516c0 1.35.54 3.683 3.818 6.961s5.613 3.819 6.962 3.819c.327 0 1.033.004 1.573-.537l.299-.298-3.116-3.172-.327.327c-.193.194-.336.217-.475.2a.84.84 0 0 1-.388-.178c-.573-.443-1.5-1.078-2.555-2.133S4.804 6.523 4.36 5.95a.84.84 0 0 1-.178-.386c-.017-.14.008-.284.202-.478l.3-.3zm6.633 1.198c-.306.007-.306.462 0 .469a3.51 3.51 0 0 1 3.515 3.516c.007.305.462.305.469 0A3.99 3.99 0 0 0 8.203 2.81m0 1.406c-.313 0-.313.47 0 .47 1.167 0 2.109.94 2.109 2.109 0 .312.469.312.469 0a2.58 2.58 0 0 0-2.578-2.579m0 1.876a.7.7 0 0 1 .704.703c-.007.32.476.32.469 0 0-.645-.529-1.172-1.185-1.172-.323.015-.3.484.012.47m3.291 3.232a.7.7 0 0 0-.497.204l-.426.427 3.116 3.173.317-.317c.173-.173.296-.38.303-.615s-.108-.46-.303-.655l-2.012-2.013a.7.7 0 0 0-.498-.204"/></svg>