<svg xmlns="http://www.w3.org/2000/svg" width="15" height="16" fill="none" viewBox="0 0 15 16"><path fill="#f5f5f5" d="M7.5 0C3.358 0 0 3.374 0 7.536a7.54 7.54 0 0 0 4.767 7.02c-.066-.596-.125-1.513.026-2.164.136-.588.88-3.746.88-3.746s-.225-.451-.225-1.118c0-1.048.604-1.83 1.357-1.83.64 0 .949.482.949 1.06 0 .647-.41 1.614-.621 2.51-.177.75.374 1.362 1.11 1.362 1.333 0 2.358-1.412 2.358-3.451 0-1.805-1.29-3.066-3.133-3.066-2.134 0-3.386 1.608-3.386 3.27 0 .648.248 1.343.558 1.72.061.075.07.14.052.216-.057.238-.184.75-.208.855-.033.138-.11.167-.251.1-.937-.437-1.523-1.813-1.523-2.919 0-2.377 1.72-4.56 4.956-4.56 2.602 0 4.624 1.863 4.624 4.352 0 2.598-1.63 4.688-3.892 4.688-.76 0-1.475-.397-1.72-.866l-.467 1.792c-.169.655-.626 1.475-.932 1.976a7.5 7.5 0 0 0 2.221.336c4.142 0 7.5-3.374 7.5-7.537C15 3.374 11.642 0 7.5 0"/></svg>