<svg xmlns="http://www.w3.org/2000/svg" width="15" height="15" fill="none" viewBox="0 0 15 15"><g clip-path="url(#a)"><path fill="#f5f5f5" d="m.265 7.231 3.456 1.29 1.338 4.302a.407.407 0 0 0 .646.195l1.927-1.57a.575.575 0 0 1 .7-.02l3.475 2.523c.24.173.579.042.639-.247L14.99 1.46a.407.407 0 0 0-.545-.463L.26 6.469a.408.408 0 0 0 .004.762m4.578.603 6.755-4.16c.122-.075.247.09.142.186L6.166 9.042a1.16 1.16 0 0 0-.359.692l-.19 1.407c-.025.188-.289.207-.34.025l-.73-2.567a.68.68 0 0 1 .296-.765"/></g><defs><clipPath id="a"><path fill="#fff" d="M0 0h15v15H0z"/></clipPath></defs></svg>