<svg aria-hidden="true" style="position: absolute; width: 0; height: 0; overflow: hidden;" version="1.1" xmlns="http://www.w3.org/2000/svg" xmlns:xlink="http://www.w3.org/1999/xlink">
    <defs>
        <symbol id="icon-phone" viewBox="0 0 32 32">
            <path d="M5.966 1.488c-0.5 0.015-0.939 0.279-1.307 0.647l-0.613 0.612 6.646 6.768 0.965-0.965c0.581-0.581 0.581-1.542 0-2.123l-4.293-4.292c-0.416-0.416-0.899-0.662-1.398-0.647zM17.488 4.009c5.805 0 10.501 4.696 10.501 10.501-0.015 0.682 1.015 0.682 1 0 0-6.345-5.156-11.497-11.525-11.497-0.637 0.076-0.594 0.979 0.024 0.996h-0zM3.337 3.454l-0.704 0.703c-1.152 1.152-1.145 2.66-1.145 3.355 0 2.879 1.151 7.857 8.146 14.852s11.973 8.146 14.853 8.146c0.696 0 2.203 0.008 3.356-1.144l0.637-0.637-6.646-6.768-0.697 0.698c-0.413 0.413-0.718 0.462-1.015 0.428s-0.603-0.206-0.827-0.38c-1.222-0.946-3.201-2.301-5.451-4.551s-3.604-4.23-4.551-5.452c-0.173-0.224-0.345-0.527-0.38-0.823s0.019-0.605 0.432-1.019l0.642-0.642-6.647-6.768zM17.488 6.010c-0.652 0.015-0.652 0.986 0 1 4.148 0 7.5 3.352 7.5 7.5 0.015 0.652 0.986 0.652 1 0 0-4.688-3.812-8.5-8.5-8.5zM17.488 9.010c-0.667 0-0.667 1.001 0 1.001 2.491 0 4.499 2.008 4.499 4.499 0 0.667 1.001 0.667 1.001 0 0-3.032-2.468-5.5-5.5-5.5zM17.488 13.012c0.834 0 1.503 0.664 1.503 1.498-0.015 0.682 1.015 0.682 1 0 0-1.375-1.128-2.499-2.527-2.499-0.691 0.032-0.643 1.033 0.024 1.001h-0zM24.51 19.905c-0.385 0-0.77 0.146-1.061 0.437l-0.91 0.911 6.647 6.768 0.678-0.678c0.368-0.368 0.63-0.811 0.646-1.311s-0.23-0.983-0.646-1.398l-4.293-4.293c-0.291-0.291-0.676-0.437-1.062-0.437z"></path>
        </symbol>
    </defs>
</svg>
